<?xml version="1.0" standalone="no"?>
<!DOCTYPE svg PUBLIC "-//W3C//DTD SVG 20010904//EN"
 "http://www.w3.org/TR/2001/REC-SVG-20010904/DTD/svg10.dtd">
<svg version="1.0" xmlns="http://www.w3.org/2000/svg"
 width="320.000000pt" height="320.000000pt" viewBox="0 0 320.000000 320.000000"
 preserveAspectRatio="xMidYMid meet">

<g transform="translate(0.000000,320.000000) scale(0.100000,-0.100000)"
fill="#000000" stroke="none">
<path d="M34 3166 l-34 -34 0 -1532 0 -1532 34 -34 34 -34 1532 0 1532 0 34
34 34 34 0 1532 0 1532 -34 34 -34 34 -1532 0 -1532 0 -34 -34z m1434 -2100
c20 -3 186 -6 368 -6 l332 0 6 -23 c11 -42 7 -232 -6 -245 -9 -9 -139 -12
-525 -12 l-513 0 0 990 0 990 148 144 147 144 3 -988 2 -987 38 -7z m283 1510
c353 -57 645 -242 836 -528 139 -208 203 -419 203 -668 0 -261 -67 -477 -217
-703 -234 -352 -696 -570 -1098 -518 -474 62 -837 332 -1007 751 -64 156 -88
286 -88 470 0 211 36 356 136 551 66 129 150 244 239 328 66 61 171 138 179
130 2 -2 6 -70 7 -150 l3 -146 -69 -75 c-128 -138 -213 -313 -237 -491 -15
-114 -5 -304 22 -397 35 -125 119 -284 200 -378 133 -155 275 -247 478 -309
79 -24 102 -27 252 -27 181 -1 229 9 376 75 149 66 313 202 401 330 124 181
182 392 168 617 -8 131 -22 194 -70 304 -91 210 -262 391 -465 493 -115 57
-197 83 -309 95 -51 6 -97 12 -100 15 -9 5 -13 203 -5 228 7 21 47 22 165 3z"/>
</g>
</svg>
